<?xml version="1.0" encoding="utf-8"?>
<!-- Generator: Adobe Illustrator 16.0.0, SVG Export Plug-In . SVG Version: 6.00 Build 0)  -->
<!DOCTYPE svg PUBLIC "-//W3C//DTD SVG 1.1//EN" "http://www.w3.org/Graphics/SVG/1.1/DTD/svg11.dtd">
<svg version="1.1" id="Слой_1" xmlns="http://www.w3.org/2000/svg" xmlns:xlink="http://www.w3.org/1999/xlink" x="0px" y="0px"
	 width="1000px" height="841.89px" viewBox="0 0 1000 841.89" enable-background="new 0 0 1000 841.89" xml:space="preserve">
<g>
	<g>
		<path d="M407.157,402.93c8.055,0,14.124,1.941,18.201,5.824c4.078,3.882,6.119,9.999,6.119,18.347v11.354
			c0,8.057-1.917,14.247-5.75,18.573c-3.832,4.326-9.827,6.487-17.982,6.487h-24.027V360.332h43.484v10.466h-32.136v32.132H407.157z
			 M407.745,453.048c4.224,0,7.319-1.104,9.287-3.316c1.964-2.213,2.946-5.724,2.946-10.538v-12.824
			c0-5.012-1.08-8.453-3.242-10.318c-2.162-1.868-5.355-2.802-9.579-2.802h-12.09v39.799H407.745z"/>
		<path d="M481.002,440.813c-0.884,3.831-1.941,7.223-3.168,10.171c-1.23,2.946-2.875,5.407-4.937,7.373
			c-2.065,1.966-4.644,3.386-7.74,4.273c-3.094,0.886-7.002,1.228-11.718,1.033v-10.319c4.421,0.198,7.74-0.47,9.95-1.995
			c2.211-1.521,3.805-4.244,4.79-8.176l2.358-6.782l-23.731-76.06h11.498l10.465,35.817l7.076,25.943l6.043-25.943l9.287-35.817
			h11.938L481.002,440.813z"/>
		<path d="M569.741,477.668v-14.151h-42.158v14.151h-11.054v-24.323h6.631c1.769-1.97,2.922-4.178,3.467-6.634
			c0.535-2.457,0.905-5.259,1.103-8.403l3.982-77.976h41.415v93.013h7.814v24.323H569.741z M538.932,438.163
			c-0.198,3.733-0.613,6.774-1.254,9.136c-0.638,2.358-1.792,4.373-3.46,6.046h27.269v-82.547h-19.164L538.932,438.163z"/>
		<path d="M649.193,477.668v-14.151h-42.157v14.151h-11.057v-24.323h6.63c1.771-1.97,2.926-4.178,3.467-6.634
			c0.539-2.457,0.909-5.259,1.107-8.403l3.977-77.976h41.421v93.013h7.812v24.323H649.193z M618.385,438.163
			c-0.198,3.733-0.618,6.774-1.253,9.136c-0.643,2.358-1.796,4.373-3.466,6.046h27.269v-82.547h-19.161L618.385,438.163z"/>
		<path d="M689.43,442.729l-3.979,20.787h-10.608l19.746-103.185h16.659l19.756,103.185h-11.498l-3.981-20.787H689.43z
			 M690.905,432.855H713.9l-11.646-59.553L690.905,432.855z"/>
		<path d="M828.434,477.668v-14.151h-42.16v14.151h-11.052v-24.323h6.631c1.769-1.97,2.921-4.178,3.466-6.634
			c0.536-2.457,0.906-5.259,1.105-8.403l3.979-77.976h41.416v93.013h7.814v24.323H828.434z M797.623,438.163
			c-0.198,3.733-0.613,6.774-1.253,9.136c-0.638,2.358-1.792,4.373-3.461,6.046h27.269v-82.547h-19.162L797.623,438.163z"/>
		<path d="M856.142,385.244c0-7.962,1.94-14.273,5.827-18.942c3.879-4.667,9.8-7.002,17.762-7.002
			c7.959,0,13.903,2.334,17.835,7.002c3.929,4.669,5.894,10.98,5.894,18.942v53.356c0,7.863-1.965,14.151-5.894,18.869
			c-3.932,4.719-9.876,7.076-17.835,7.076c-7.962,0-13.883-2.357-17.762-7.076c-3.887-4.718-5.827-11.006-5.827-18.869V385.244z
			 M867.495,439.193c0,4.715,1.006,8.378,3.021,10.978c2.01,2.606,5.084,3.907,9.214,3.907c4.22,0,7.319-1.301,9.285-3.907
			c1.965-2.6,2.945-6.263,2.945-10.978v-54.541c0-4.717-0.98-8.376-2.945-10.981c-1.966-2.602-5.065-3.907-9.285-3.907
			c-4.13,0-7.204,1.305-9.214,3.907c-2.016,2.605-3.021,6.265-3.021,10.981V439.193z"/>
		<path d="M959.768,463.366h-11.051l-17.103-82.103v82.253h-10.021V360.332h16.067l16.948,82.398l16.36-82.398h16.073v103.185
			h-10.913v-82.991L959.768,463.366z"/>
	</g>
	<g>
		<path d="M387.866,543.438l-4.698,7.093v23.748h-1.949v-62.033h1.949v35.009l23.042-35.009h2.127l-19.23,29.334l20.825,32.699
			h-2.127L387.866,543.438z"/>
		<path d="M434.657,564.356c-0.475,1.533-0.992,2.923-1.552,4.162c-0.563,1.245-1.271,2.292-2.126,3.149
			c-0.858,0.856-1.891,1.504-3.104,1.945c-1.211,0.445-2.732,0.666-4.561,0.666v-1.771c1.476,0,2.701-0.189,3.676-0.576
			c0.975-0.384,1.817-0.933,2.527-1.64c0.708-0.71,1.297-1.567,1.771-2.573c0.472-1.001,0.946-2.126,1.418-3.362l3.546-10.104
			l-15.42-42.006h2.037l14.358,39.434l5.936-17.455l7.534-21.979h2.126L434.657,564.356z"/>
		<path d="M475.685,514.109l-1.772,45.195c-0.12,1.83-0.266,3.634-0.444,5.407c-0.176,1.771-0.575,3.361-1.195,4.784
			c-0.62,1.417-1.565,2.567-2.836,3.457c-1.271,0.883-2.999,1.356-5.185,1.418h-0.621v-1.863c2.01,0,3.559-0.4,4.652-1.194
			c1.094-0.799,1.908-1.817,2.44-3.058c0.53-1.244,0.854-2.647,0.973-4.213c0.118-1.565,0.206-3.143,0.266-4.738l1.861-47.059
			h21.535v62.033h-2.039v-60.17H475.685z"/>
		<path d="M517.602,538.568c5.02,0,8.67,1.183,10.944,3.544c2.272,2.364,3.413,6.024,3.413,10.986v6.206
			c0,2.184-0.223,4.194-0.668,6.025c-0.445,1.829-1.167,3.411-2.172,4.738c-1.005,1.332-2.336,2.365-3.984,3.104
			c-1.656,0.737-3.692,1.107-6.116,1.107h-12.14v-62.033h1.945v26.322H517.602z M519.019,572.416c2.068,0,3.809-0.32,5.226-0.972
			s2.556-1.548,3.413-2.703c0.857-1.153,1.462-2.525,1.816-4.121c0.355-1.595,0.531-3.338,0.531-5.226v-6.383
			c0-4.431-0.972-7.636-2.926-9.615c-1.944-1.978-5.109-2.966-9.478-2.966h-8.777v31.985H519.019z"/>
		<path d="M556.503,574.279v-60.17h-13.557v-1.863h29.069v1.863h-13.559v60.17H556.503z"/>
		<path d="M596.65,564.356c-0.479,1.533-0.993,2.923-1.554,4.162c-0.564,1.245-1.274,2.292-2.127,3.149
			c-0.857,0.856-1.891,1.504-3.102,1.945c-1.213,0.445-2.733,0.666-4.562,0.666v-1.771c1.476,0,2.698-0.189,3.675-0.576
			c0.978-0.384,1.818-0.933,2.527-1.64c0.708-0.71,1.298-1.567,1.771-2.573c0.471-1.001,0.949-2.126,1.417-3.362l3.545-10.104
			l-15.422-42.006h2.04l14.358,39.434l5.938-17.455l7.532-21.979h2.127L596.65,564.356z"/>
		<path d="M638.206,512.246c2.366,0,4.373,0.37,6.025,1.108c1.656,0.742,2.983,1.773,3.989,3.099
			c1.006,1.332,1.731,2.915,2.171,4.744c0.441,1.834,0.663,3.842,0.663,6.028v6.199c0,4.965-1.136,8.629-3.41,10.99
			c-2.275,2.361-5.895,3.548-10.855,3.548h-8.86v26.316h-1.953v-62.033H638.206z M636.789,546.1c4.373,0,7.517-0.988,9.438-2.965
			c1.919-1.983,2.88-5.185,2.88-9.619v-6.38c0-1.891-0.176-3.635-0.532-5.229c-0.354-1.594-0.958-2.967-1.812-4.121
			c-0.857-1.148-1.982-2.053-3.371-2.699c-1.388-0.651-3.116-0.977-5.185-0.977h-10.277v31.99H636.789z"/>
		<path d="M664.174,544.148v30.131h-1.949v-62.033h1.949v30.129h22.422v-30.129h1.949v62.033h-1.949v-30.131H664.174z"/>
		<path d="M710.785,538.568c5.02,0,8.673,1.183,10.945,3.544c2.276,2.364,3.413,6.024,3.413,10.986v6.206
			c0,2.184-0.223,4.194-0.669,6.025c-0.439,1.829-1.161,3.411-2.166,4.738c-1.007,1.332-2.336,2.365-3.989,3.104
			c-1.657,0.737-3.692,1.107-6.116,1.107h-12.141v-62.033h1.949v26.322H710.785z M712.203,572.416c2.07,0,3.812-0.32,5.23-0.972
			c1.417-0.651,2.554-1.548,3.411-2.703c0.854-1.153,1.464-2.525,1.817-4.121c0.354-1.595,0.527-3.338,0.527-5.226v-6.383
			c0-4.431-0.972-7.636-2.922-9.615c-1.948-1.978-5.108-2.966-9.482-2.966h-8.773v31.985H712.203z M733.031,512.246v62.033h-1.955
			v-62.033H733.031z"/>
		<path d="M759.083,542.021l-12.139,32.259h-2.395v-62.033h1.858v58.312l9.395-25.258l12.496-33.055h2.662v62.033h-1.863v-59.021
			L759.083,542.021z M766.79,501.61c-0.114,2.13-0.988,3.783-2.611,4.966c-1.624,1.182-3.562,1.771-5.803,1.771
			c-2.247,0-4.196-0.576-5.853-1.726c-1.653-1.155-2.509-2.82-2.567-5.012h1.596c0.057,1.834,0.766,3.148,2.125,3.947
			c1.36,0.797,2.926,1.195,4.699,1.195c1.714,0,3.247-0.398,4.605-1.195c1.361-0.799,2.094-2.113,2.219-3.947H766.79z"/>
		<path d="M832.014,582.612v-8.333h-29.774v-62.033h1.862v60.17h22.326v-60.17h2.042v60.17h5.493v10.196H832.014z"/>
		<path d="M865.6,541.935v1.771h-18.257v28.711h21.715v1.863h-23.663v-62.033h23.663v1.863h-21.715v27.825H865.6z"/>
		<path d="M882.344,544.148v30.131h-1.946v-62.033h1.946v30.129h22.427v-30.129h1.944v62.033h-1.944v-30.131H882.344z"/>
		<path d="M931.441,574.279v-60.17h-13.559v-1.863h29.069v1.863h-13.559v60.17H931.441z"/>
		<path d="M970.343,512.246c2.366,0,4.374,0.37,6.025,1.108c1.656,0.742,2.984,1.773,3.989,3.099
			c1.005,1.332,1.731,2.915,2.172,4.744c0.44,1.834,0.663,3.842,0.663,6.028v6.199c0,4.965-1.137,8.629-3.411,10.99
			s-5.895,3.548-10.856,3.548h-8.859v26.316h-1.954v-62.033H970.343z M968.925,546.1c4.373,0,7.518-0.988,9.438-2.965
			c1.919-1.983,2.879-5.185,2.879-9.619v-6.38c0-1.891-0.176-3.635-0.531-5.229c-0.354-1.594-0.96-2.967-1.812-4.121
			c-0.857-1.148-1.982-2.053-3.372-2.699c-1.387-0.651-3.115-0.977-5.184-0.977h-10.277v31.99H968.925z"/>
	</g>
	<g>
		<polygon fill-rule="evenodd" clip-rule="evenodd" fill="#27348B" points="166.677,322.947 72.005,417.821 11.982,392.999 
			166.693,237.955 124.285,280.456 166.677,322.947 		"/>
		<polygon fill-rule="evenodd" clip-rule="evenodd" fill="#00964F" points="90.632,520.46 242.973,520.46 242.85,571.52 
			90.817,571.52 90.632,520.46 		"/>
		<polygon fill-rule="evenodd" clip-rule="evenodd" fill="#0063AF" points="166.693,237.955 124.285,280.456 261.407,417.88 
			321.376,392.999 166.693,237.955 		"/>
		<polygon fill-rule="evenodd" clip-rule="evenodd" fill="#CE162B" points="243.196,425.437 242.85,571.52 294.598,571.52 
			321.371,392.999 243.196,425.437 		"/>
		<polygon fill-rule="evenodd" clip-rule="evenodd" fill="#F9B000" points="90.286,425.38 90.817,571.52 39.062,571.52 
			11.979,392.999 90.286,425.38 		"/>
	</g>
</g>
</svg>
