<?xml version="1.0" encoding="utf-8"?>
<!-- Generator: Adobe Illustrator 16.0.0, SVG Export Plug-In . SVG Version: 6.00 Build 0)  -->
<!DOCTYPE svg PUBLIC "-//W3C//DTD SVG 1.1//EN" "http://www.w3.org/Graphics/SVG/1.1/DTD/svg11.dtd">
<svg version="1.1" id="Слой_1" xmlns="http://www.w3.org/2000/svg" xmlns:xlink="http://www.w3.org/1999/xlink" x="0px" y="0px"
	 width="1000px" height="841.89px" viewBox="0 0 1000 841.89" enable-background="new 0 0 1000 841.89" xml:space="preserve">
<g>
	<path fill="#CF172C" d="M501,147.676c-166.088,0-302.003,135.106-303.081,301.194c-0.539,80.956,30.578,157.333,87.422,214.851
		c56.845,57.652,132.817,89.577,213.773,90.116c0,0,1.886,0,2.021,0c166.088,0,302.003-135.106,303.08-301.195
		C805.158,285.611,670.052,148.753,501,147.676z M501,713.021h-1.751c-70.046-0.404-135.646-28.152-184.947-77.992
		c-49.166-49.84-76.106-115.845-75.568-185.89c0.943-143.728,118.538-260.515,263.882-260.515
		c144.536,0.943,261.458,119.347,260.515,263.882C762.322,596.1,644.728,713.021,501,713.021z"/>
	<path fill="#CF172C" d="M649.173,321.711H352.827c-10.776,0-19.532,8.756-19.532,19.532c0,10.776,8.756,19.532,19.532,19.532
		h296.346c10.776,0,19.531-8.756,19.531-19.532C668.704,330.467,659.949,321.711,649.173,321.711z"/>
	<path fill="#CF172C" d="M649.173,431.225H352.827c-10.776,0-19.532,8.755-19.532,19.531s8.756,19.532,19.532,19.532h296.346
		c10.776,0,19.531-8.756,19.531-19.532S659.949,431.225,649.173,431.225z"/>
	<path fill="#CF172C" d="M649.173,540.603H352.827c-10.776,0-19.532,8.756-19.532,19.532c0,10.775,8.756,19.531,19.532,19.531
		h296.346c10.776,0,19.531-8.756,19.531-19.531C668.704,549.358,659.949,540.603,649.173,540.603z"/>
</g>
</svg>
